<svg xmlns="http://www.w3.org/2000/svg" xmlns:xlink="http://www.w3.org/1999/xlink" width="120" zoomAndPan="magnify" viewBox="0 0 90 89.999999" height="120" preserveAspectRatio="xMidYMid meet" version="1.0"><path fill="rgb(95.689392%, 26.269531%, 21.179199%)" d="M 45 0 C 20.1875 0 0 20.1875 0 45 C 0 69.8125 20.1875 90 45 90 C 69.8125 90 90 69.8125 90 45 C 90 20.1875 69.8125 0 45 0 Z M 45 0 " fill-opacity="1" fill-rule="evenodd"/><path fill="rgb(100%, 100%, 100%)" d="M 54.480469 38.5 L 47.984375 45 L 54.480469 51.5 C 55.304688 52.320312 55.304688 53.65625 54.480469 54.480469 C 54.070312 54.894531 53.527344 55.097656 52.988281 55.097656 C 52.449219 55.097656 51.910156 54.894531 51.5 54.480469 L 45 47.984375 L 38.5 54.480469 C 37.679688 55.304688 36.34375 55.304688 35.519531 54.480469 C 34.695312 53.65625 34.695312 52.320312 35.519531 51.5 L 42.015625 45 L 35.519531 38.5 C 34.695312 37.679688 34.695312 36.34375 35.519531 35.519531 C 36.34375 34.695312 37.679688 34.695312 38.5 35.519531 L 45 42.015625 L 51.5 35.519531 C 52.320312 34.695312 53.65625 34.695312 54.480469 35.519531 C 55.304688 36.34375 55.304688 37.679688 54.480469 38.5 Z M 45 69.257812 C 58.375 69.257812 69.257812 58.375 69.257812 45 C 69.257812 31.625 58.375 20.742188 45 20.742188 C 31.625 20.742188 20.742188 31.625 20.742188 45 C 20.742188 58.375 31.625 69.257812 45 69.257812 Z M 45 16.523438 C 29.296875 16.523438 16.523438 29.296875 16.523438 45 C 16.523438 60.703125 29.296875 73.476562 45 73.476562 C 60.703125 73.476562 73.476562 60.703125 73.476562 45 C 73.476562 29.296875 60.703125 16.523438 45 16.523438 Z M 45 16.523438 " fill-opacity="1" fill-rule="evenodd"/></svg>